<?xml version="1.0" encoding="UTF-8"?>
<!-- Copyright 2026 Doug Trier. SPDX-License-Identifier: Apache-2.0. Trier Bridge support icon: coffee cup. -->
<svg xmlns="http://www.w3.org/2000/svg" width="32" height="32" viewBox="0 0 32 32">
  <defs>
    <linearGradient id="g" x1="0" y1="0" x2="0" y2="1">
      <stop offset="0" stop-color="#f6c445"/>
      <stop offset="1" stop-color="#d9962b"/>
    </linearGradient>
  </defs>
  <path d="M9.5 3.6c1.4 1.4 1.4 2.5 0 3.9c-1.2 1.2-1.2 2.2 0 3.4M15 3.6c1.4 1.4 1.4 2.5 0 3.9c-1.2 1.2-1.2 2.2 0 3.4"
        fill="none" stroke="#a2681f" stroke-width="1.6" stroke-linecap="round" opacity="0.55"/>
  <path d="M4 12h17v8.5A5.5 5.5 0 0 1 15.5 26h-6A5.5 5.5 0 0 1 4 20.5z" fill="url(#g)" stroke="#a86f14" stroke-width="1.2"/>
  <path d="M21 14h2.2a3.9 3.9 0 0 1 0 7.8H21v-2.6h2.2a1.3 1.3 0 0 0 0-2.6H21z" fill="url(#g)" stroke="#a86f14" stroke-width="1.2" stroke-linejoin="round"/>
  <path d="M5.5 14.4h14" stroke="#fff3c4" stroke-width="1.4" stroke-linecap="round" opacity="0.7"/>
  <rect x="3" y="27.2" width="20" height="2.4" rx="1.2" fill="#8a5716" opacity="0.85"/>
</svg>
